<?xml version="1.0" encoding="utf-8"?>
<!DOCTYPE svg PUBLIC "-//W3C//DTD SVG 1.1//EN" "http://www.w3.org/Graphics/SVG/1.1/DTD/svg11.dtd">
<svg xmlns="http://www.w3.org/2000/svg" xmlns:xlink="http://www.w3.org/1999/xlink"
     version="1.1">
    <svg>
        <path id="coral"
              d="M5.532,21.83c0-0.654,0.121-1.887,1.637-2.521c1.295-0.541,2.472,0.65,5.251-0.113
        c2.998-0.822,3.09-4.771,5.321-4.771c1.297,0,1.656-0.558,1.656-1.505c0-0.852-1.051-1.126-1.514-1.151
        c-3.464-0.19-4.209,4.418-6.447,4.713c-1.092,0.146-1.835-0.178-2.245-0.979c-0.48-0.938-0.042-1.986,0.521-2.499
        c1.108-1.008,4.738-1.66,6.353-4.743c0.625-1.193,1.089-3.607,1.174-4.033c0.142-0.709,0.741-1.333,1.591-1.6
        c1.325-0.417,1.391-0.984,1.277-1.694c-0.139-0.867-1.073-1.043-1.82-0.881c-1.903,0.421-2.689,1.7-3.149,2.528
        c-0.458,0.833-1.03,3-1.192,3.37c-0.668,1.52-1.878,2.201-3.03,1.78c-1.193-0.436-1.241-2.108-0.492-3.597
        c0.193-0.385,0.878-1.865-0.223-2.333c-0.667-0.284-1.174,0.17-1.434,0.596C8.269,3.213,7.825,4.291,7.659,5.469
        c-0.256,1.817,0.498,3.33,0.605,3.787c0.171,0.719,0.455,2.215-1.221,2.783c-0.878,0.298-1.586-0.083-1.931-0.369
        c-0.838-0.696-0.589-1.828-1.63-1.981C2.899,9.605,2.333,9.98,2.13,10.505c-0.453,1.168,0.356,2.108,1.165,2.897
        c0.907,0.887,2.432,1.438,2.18,2.977c-0.158,0.963-1.327,1.599-1.925,2.057c-1.221,0.934-1.456,2.455-1.456,3.395
        c0,0.277,0.603,0.17,1.802,0.17C5.017,22,5.532,22.049,5.532,21.83z" fill="#FFFFFF"
                />
    </svg>
    <svg>
        <path id="resource" d="M14.001,7.055c-0.333,0-0.643,0.091-0.918,0.237l-2.057-2.056
            c0.613-0.549,1.007-1.339,1.007-2.228c0-1.658-1.344-3.002-3.002-3.002c-1.659,0-3.002,1.344-3.002,3.002
            c0,0.885,0.39,1.672,1,2.222L5.253,7.005C4.704,6.396,3.916,6.006,3.031,6.006c-1.658,0-3.002,1.344-3.002,3.001
            c0,1.658,1.344,3.002,3.002,3.002c0.869,0,1.645-0.375,2.193-0.965l2.051,2.051c-0.15,0.277-0.243,0.591-0.243,0.928
            c0,1.088,0.881,1.969,1.969,1.969c1.087,0,1.969-0.881,1.969-1.969c0-0.333-0.091-0.643-0.237-0.918l2.352-2.35
            c0.274,0.146,0.584,0.236,0.917,0.236c1.087,0,1.97-0.881,1.97-1.969C15.971,7.937,15.088,7.055,14.001,7.055z M5.83,7.944
            l2.138-2.137C8.299,5.933,8.655,6.01,9.031,6.01c0.372,0,0.725-0.076,1.053-0.2l2.225,2.223c-0.171,0.292-0.276,0.627-0.276,0.99
            c0,0.363,0.105,0.698,0.276,0.99L9.99,12.331c-0.291-0.171-0.627-0.276-0.989-0.276c-0.358,0-0.69,0.104-0.98,0.271L5.814,10.12
            c0.138-0.345,0.219-0.719,0.219-1.112C6.033,8.632,5.956,8.276,5.83,7.944z" fill="#FFFFFF"/>
    </svg>
    <svg>
        <g id="modules" xmlns="http://www.w3.org/2000/svg">
            <path d="M3.498,0l3.499,2.02v4.041L3.498,8.08L0,6.061V2.02L3.498,0z" fill="#FFFFFF"/>
            <path d="M8.01,7.807l4.001,2.311v3.621L8.01,16.049l-4.002-2.311v-3.621L8.01,7.807z" fill="#FFFFFF"/>
            <path d="M12.484,0.053l3.484,2.011v4.024L12.484,8.1L9,6.088V2.064L12.484,0.053z" fill="#FFFFFF"/>
        </g>
    </svg>
    <svg>
        <g  id="eye">
            <path fill="#FFFFFF" d="M11,3C3,3,0,11,0,11s3,8,11,8s11-8,11-8S19,3,11,3z M11,17c-3.314,0-6-2.686-6-6c0-3.314,2.686-6,6-6
                c3.314,0,6,2.686,6,6C17,14.314,14.314,17,11,17z M11,8c1.656,0,3,1.343,3,3c0,1.656-1.344,3-3,3c-1.657,0-3-1.344-3-3
                C8,9.343,9.343,8,11,8z"/>
        </g>
    </svg>
    <svg>
        <g id="compass">
            <path fill-rule="evenodd" clip-rule="evenodd" fill="#FFFFFF" d="M11,0C4.925,0,0,4.925,0,11c0,6.074,4.925,11,11,11
                c6.075,0,11-4.926,11-11C22,4.925,17.075,0,11,0z M11.003,19.992c-4.974,0-9.005-4.032-9.005-9.006
                c0-4.973,4.032-9.005,9.005-9.005c4.973,0,9.005,4.032,9.005,9.005C20.009,15.96,15.977,19.992,11.003,19.992z"/>
            <path fill-rule="evenodd" clip-rule="evenodd" fill="#FFFFFF" d="M10.986,3.109c0.521,0,0.944,0.423,0.944,0.944
                s-0.423,0.944-0.944,0.944c-0.522,0-0.945-0.423-0.945-0.944S10.464,3.109,10.986,3.109z"/>
            <path fill-rule="evenodd" clip-rule="evenodd" fill="#FFFFFF" d="M10.957,17.092c0.521,0,0.944,0.423,0.944,0.944
                s-0.423,0.944-0.944,0.944s-0.944-0.423-0.944-0.944S10.435,17.092,10.957,17.092z"/>
            <path fill-rule="evenodd" clip-rule="evenodd" fill="#FFFFFF" d="M3.068,11.077c0-0.521,0.423-0.944,0.944-0.944
                s0.944,0.423,0.944,0.944s-0.423,0.944-0.944,0.944S3.068,11.599,3.068,11.077z"/>
            <path fill-rule="evenodd" clip-rule="evenodd" fill="#FFFFFF" d="M17.02,11.106c0-0.522,0.422-0.944,0.943-0.944
                s0.945,0.422,0.945,0.944c0,0.521-0.424,0.944-0.945,0.944S17.02,11.628,17.02,11.106z"/>
            <path fill-rule="evenodd" clip-rule="evenodd" fill="#FFFFFF" d="M9.67,9.679l-4.215,6.987l6.987-4.215l4.216-6.987L9.67,9.679z
                 M11.007,12.008c-0.525,0-0.952-0.427-0.952-0.952s0.426-0.952,0.952-0.952s0.952,0.427,0.952,0.952S11.533,12.008,11.007,12.008z"
                />
        </g>
    </svg>
    <svg>
        <path id="process" fill="#FFFFFF" d="M21.951,7l-4-4v3h-5v2h5v3L21.951,7z M6.952,18.277V15h-2v3.277c-0.595,0.347-1,0.983-1,1.723
            c0,1.104,0.896,2,2,2s2-0.896,2-2C7.952,19.262,7.547,18.624,6.952,18.277z M11.952,2c0-1.1-0.9-2-2-2h-8c-1.1,0-2,0.9-2,2v10
            c0,1.1,0.9,2,2,2h8c1.1,0,2-0.9,2-2V2z"/>
    </svg>
    <svg>
        <path id="saved_interface" fill="#32bf61" d="M2,15V4h18v8h2V2c0-1.104-0.896-2-2-2H2C0.895,0,0,0.896,0,2v13c0,1.104,0.895,2,2,2h7v-2H2z M3,1
	c0.552,0,1,0.448,1,1S3.552,3,3,3S2,2.552,2,2S2.448,1,3,1z M10,20h12v2H10V20z M16,19.281l-5.625-4.5l1.25-1.563l4.375,3.5
	l4.375-3.5l1.25,1.563L16,19.281z"/>
    </svg>
    <svg>
        <g id="unsaved_interface">
            <path fill="#FFFFFF" d="M16,12c2.205,0,4,1.795,4,4s-1.795,4-4,4s-4-1.795-4-4S13.795,12,16,12 M16,10c-3.313,0-6,2.687-6,6
		s2.687,6,6,6s6-2.687,6-6S19.313,10,16,10L16,10z"/>
            <path fill-rule="evenodd" clip-rule="evenodd" fill="#FFFFFF" d="M2,15V4h18v6.26c0.81,0.565,1.49,1.299,2,2.148V2
		c0-1.104-0.896-2-2-2H2C0.895,0,0,0.896,0,2v13c0,1.104,0.895,2,2,2h7v-2H2z M3,1c0.552,0,1,0.448,1,1S3.552,3,3,3S2,2.552,2,2
		S2.448,1,3,1z"/>
        </g>
    </svg>
    <svg>
        <path id="device_open" fill="#FFFFFF" d="M11,14l-1-2h5c1.1,0,2-0.9,2-2V3c0-1.1-0.9-2-2-2H3C1.9,1,1,1.9,1,3v7c0,1.1,0.9,2,2,2h5l-1,2
            c-1.1,0-2,0.9-2,2h8C13,14.9,12.1,14,11,14z M3,10V3h12v7H3z M21.707,20.293c0.391,0.391,0.391,1.023,0,1.414
            C21.512,21.902,21.256,22,21,22s-0.512-0.098-0.707-0.293L14.586,16l5.707-5.707c0.391-0.391,1.023-0.391,1.414,0
            s0.391,1.023,0,1.414L17.414,16L21.707,20.293z"/>
    </svg>
    <svg version="1.1" id="Layer_1" xmlns="http://www.w3.org/2000/svg" xmlns:xlink="http://www.w3.org/1999/xlink" x="0px" y="0px"
	 width="22px" height="22px" viewBox="0 0 22 22" enable-background="new 0 0 22 22" xml:space="preserve">
        <g id="device_close">
            <path fill="#FFFFFF" d="M11,14l-1-2h4v-2H3V3h12v6h2V3c0-1.1-0.9-2-2-2H3C1.9,1,1,1.9,1,3v7c0,1.1,0.9,2,2,2h5l-1,2
                c-1.1,0-2,0.9-2,2h8C13,14.9,12.1,14,11,14z"/>
            <g>
                <path fill="#FFFFFF" d="M16,22c-0.256,0-0.512-0.098-0.707-0.293c-0.391-0.391-0.391-1.023,0-1.414L19.586,16l-4.293-4.293
                    c-0.391-0.391-0.391-1.023,0-1.414s1.023-0.391,1.414,0L22.414,16l-5.707,5.707C16.512,21.902,16.256,22,16,22z"/>
            </g>
        </g>
    </svg>
    <svg>
        <path id="bird" fill="#ffffff" clip-rule="evenodd" d="M13.209,4.388L15,2l0.048,0.041C15.27,0.879,16.288,0,17.515,0
            c1.389,0,2.514,1.125,2.514,2.514c0,0.055-0.013,0.106-0.017,0.161L22,4h-2.176l-0.001,0.005C19.806,4.005,19.789,4,19.771,4
            c-0.906,0-1.646,0.684-1.749,1.563L18,5.557v3.621L13.209,4.388z M12.604,5.196L0,22h8v-4h5c5,0,5-3.916,5-3.916v-3.492
            L12.604,5.196z"/>
    </svg>
    <svg>
        <path id="question" fill="#ffffff" d="M8.788,10.994v-0.476c0-0.571,0.111-1.026,0.332-1.365c0.224-0.339,0.663-0.765,1.318-1.28
            c0.768-0.6,1.31-1.087,1.624-1.461c0.313-0.373,0.548-0.767,0.704-1.18C12.922,4.82,13,4.349,13,3.82
            c0-1.192-0.406-2.127-1.218-2.804S9.875,0,8.491,0C6.854,0,5.32,0.398,3.888,1.195l0.89,1.863C5.32,2.79,5.877,2.561,6.449,2.37
            c0.571-0.19,1.192-0.286,1.863-0.286c0.739,0,1.308,0.159,1.703,0.477c0.395,0.317,0.593,0.772,0.593,1.366
            c0,0.508-0.122,0.944-0.366,1.312C10,5.605,9.458,6.12,8.618,6.783c-0.706,0.55-1.199,1.083-1.481,1.598
            c-0.283,0.516-0.424,1.16-0.424,1.937v0.677H8.788z M6.682,15.571C6.95,15.857,7.334,16,7.835,16s0.888-0.146,1.158-0.439
            c0.271-0.293,0.408-0.689,0.408-1.189c0-0.508-0.134-0.902-0.401-1.181c-0.269-0.278-0.656-0.417-1.165-0.417
            c-1.037,0-1.555,0.531-1.555,1.598C6.28,14.885,6.414,15.285,6.682,15.571z"/>
    </svg>
    <svg>
        <path id="lamp" fill="#ffffff" fill-rule="evenodd" clip-rule="evenodd" d="M12.281,9.654L12,12H5L4.719,9.654c-1.099-1.018-1.79-2.468-1.79-4.083
            C2.929,2.494,5.423,0,8.5,0s5.571,2.494,5.571,5.572C14.071,7.187,13.38,8.637,12.281,9.654z M12,13H5v1h7V13z M11,15H6v1h5V15z"/>
    </svg>
    <svg>
        <circle id="dot" fill="#ffffff" cx="8" cy="8" r="3"/>
    </svg>
    <svg>
        <g id="dots">
            <circle fill="#ffffff" fill-rule="evenodd" clip-rule="evenodd" cx="8" cy="8" r="2"/>
            <circle fill="#ffffff" fill-rule="evenodd" clip-rule="evenodd" cx="2" cy="8" r="2"/>
            <circle fill="#ffffff" fill-rule="evenodd" clip-rule="evenodd" cx="14" cy="8" r="2"/>
        </g>
    </svg>
    <svg>
        <circle id="circle" cx="8" cy="8" r="3"/>
    </svg>
    <svg>
        <g id="arrow_up">
            <path fill="#ffffff" d="M15,11c0,0.256-0.098,0.512-0.293,0.707c-0.391,0.391-1.023,0.391-1.414,0L8,6.414l-5.293,5.293
                c-0.391,0.391-1.023,0.391-1.414,0s-0.391-1.023,0-1.414L8,3.586l6.707,6.707C14.902,10.488,15,10.744,15,11z"/>
        </g>
    </svg>
    <svg>
        <path id="pc" fill-rule="evenodd" clip-rule="evenodd" fill="#FFFFFF" d="M26.989,34v1H11v-1h0.625c2.851-0.125,3.458-4,3.458-4H19h3
            c0,0,1.214,3.875,4.208,4H26.989z M38,6v20c0,1.656-1.344,3-3,3H3c-1.657,0-3-1.344-3-3V6c0-1.657,1.343-3,3-3h32
            C36.656,3,38,4.343,38,6z M19.969,27.016c0-0.544-0.441-0.984-0.984-0.984c-0.544,0-0.984,0.44-0.984,0.984
            C18,27.559,18.44,28,18.984,28C19.527,28,19.969,27.559,19.969,27.016z M35,6H3v19h32V6z"/>
    </svg>
    <svg>
        <path id="tablet" fill-rule="evenodd" clip-rule="evenodd" fill="#FFFFFF" d="M32,0H6C4.343,0,3,1.343,3,3v32c0,1.656,1.343,3,3,3h26
            c1.656,0,3-1.344,3-3V3C35,1.343,33.656,0,32,0z M19,37.5c-0.69,0-1.25-0.561-1.25-1.25c0-0.691,0.56-1.25,1.25-1.25
            c0.69,0,1.25,0.559,1.25,1.25C20.25,36.939,19.69,37.5,19,37.5z M32,34H6V3h26V34z"/>
    </svg>
    <svg>
        <path id="phone" fill-rule="evenodd" clip-rule="evenodd" fill="#FFFFFF" d="M27,0H11C9.343,0,8,1.343,8,3v32c0,1.656,1.343,3,3,3h16
            c1.656,0,3-1.344,3-3V3C30,1.343,28.656,0,27,0z M15,2h8c0.553,0,1,0.447,1,1c0,0.552-0.447,1-1,1h-8c-0.553,0-1-0.448-1-1
            C14,2.447,14.447,2,15,2z M19.001,35.771c-0.736,0-1.334-0.598-1.334-1.334s0.598-1.334,1.334-1.334s1.333,0.598,1.333,1.334
            S19.737,35.771,19.001,35.771z M28,31H10V6h18V31z"/>
    </svg>
</svg>
